<svg width="143" height="37" viewBox="0 0 143 37" fill="none" xmlns="http://www.w3.org/2000/svg">
<path d="M14.2852 11.2559L24.061 27.6173H4.50939L14.2852 11.2559Z" fill="#F4F2EB"/>
<path d="M30.5195 19.625L22.5012 6.40269L38.5379 6.40269L30.5195 19.625Z" fill="#F4F2EB"/>
<path d="M127.144 17.987C127.144 16.4738 127.485 15.1418 128.167 13.9909C128.87 12.84 129.818 11.9449 131.012 11.3055C132.205 10.6448 133.559 10.3145 135.072 10.3145C136.585 10.3145 137.928 10.6448 139.1 11.3055C140.293 11.9449 141.242 12.84 141.945 13.9909C142.648 15.1418 143 16.4738 143 17.987C143 19.4789 142.648 20.8109 141.945 21.9831C141.242 23.134 140.293 24.0398 139.1 24.7005C137.928 25.3399 136.585 25.6595 135.072 25.6595C133.559 25.6595 132.205 25.3399 131.012 24.7005C129.818 24.0398 128.87 23.134 128.167 21.9831C127.485 20.8109 127.144 19.4789 127.144 17.987ZM130.692 17.987C130.692 18.9034 130.884 19.7133 131.268 20.4166C131.651 21.0986 132.173 21.6421 132.834 22.0471C133.495 22.4307 134.241 22.6225 135.072 22.6225C135.882 22.6225 136.617 22.4307 137.278 22.0471C137.96 21.6421 138.493 21.0986 138.876 20.4166C139.26 19.7133 139.452 18.9034 139.452 17.987C139.452 17.0706 139.26 16.2607 138.876 15.5574C138.493 14.854 137.96 14.3106 137.278 13.9269C136.617 13.5433 135.882 13.3515 135.072 13.3515C134.241 13.3515 133.495 13.5433 132.834 13.9269C132.173 14.3106 131.651 14.854 131.268 15.5574C130.884 16.2607 130.692 17.0706 130.692 17.987Z" fill="#F4F2EB"/>
<path d="M111.318 10.6348H115.09L118.926 20.1295L122.763 10.6348H126.567L118.926 26.6832L111.318 10.6348Z" fill="#F4F2EB"/>
<path d="M94.8921 17.987C94.8921 16.4738 95.2331 15.1418 95.9151 13.9909C96.6184 12.84 97.5668 11.9449 98.7603 11.3055C99.9538 10.6448 101.307 10.3145 102.82 10.3145C104.334 10.3145 105.676 10.6448 106.848 11.3055C108.042 11.9449 108.99 12.84 109.694 13.9909C110.397 15.1418 110.749 16.4738 110.749 17.987C110.749 19.4789 110.397 20.8109 109.694 21.9831C108.99 23.134 108.042 24.0398 106.848 24.7005C105.676 25.3399 104.334 25.6595 102.82 25.6595C101.307 25.6595 99.9538 25.3399 98.7603 24.7005C97.5668 24.0398 96.6184 23.134 95.9151 21.9831C95.2331 20.8109 94.8921 19.4789 94.8921 17.987ZM98.4406 17.987C98.4406 18.9034 98.6325 19.7133 99.0161 20.4166C99.3997 21.0986 99.9219 21.6421 100.583 22.0471C101.243 22.4307 101.989 22.6225 102.82 22.6225C103.63 22.6225 104.366 22.4307 105.026 22.0471C105.708 21.6421 106.241 21.0986 106.625 20.4166C107.008 19.7133 107.2 18.9034 107.2 17.987C107.2 17.0706 107.008 16.2607 106.625 15.5574C106.241 14.854 105.708 14.3106 105.026 13.9269C104.366 13.5433 103.63 13.3515 102.82 13.3515C101.989 13.3515 101.243 13.5433 100.583 13.9269C99.9219 14.3106 99.3997 14.854 99.0161 15.5574C98.6325 16.2607 98.4406 17.0706 98.4406 17.987Z" fill="#F4F2EB"/>
<path d="M88.0534 16.3886C88.0534 15.3016 87.8296 14.4811 87.382 13.9269C86.9345 13.3728 86.2418 13.0958 85.3041 13.0958C84.6647 13.0958 84.0999 13.2343 83.6097 13.5113C83.1195 13.7671 82.7359 14.1507 82.4588 14.6622C82.1818 15.1524 82.0432 15.7279 82.0432 16.3886V25.3399H78.5906V10.6341H82.0432V12.9039C82.5121 12.0301 83.1089 11.3801 83.8335 10.9538C84.5794 10.5276 85.4639 10.3145 86.4869 10.3145C88.1493 10.3145 89.4174 10.826 90.2912 11.849C91.165 12.8507 91.6019 14.236 91.6019 16.0049V25.3399H88.0534V16.3886Z" fill="#F4F2EB"/>
<path d="M65.7006 20.5125C66.1694 21.0241 66.6383 21.4716 67.1072 21.8552C67.5974 22.2176 68.0876 22.4946 68.5778 22.6864C69.068 22.8569 69.5582 22.9422 70.0483 22.9422C70.6664 22.9422 71.1459 22.8037 71.4869 22.5266C71.8493 22.2495 72.0304 21.8659 72.0304 21.3757C72.0304 20.9495 71.8919 20.5871 71.6148 20.2888C71.3378 19.9691 70.9541 19.7027 70.4639 19.4895C69.9737 19.2551 69.3983 19.0207 68.7376 18.7862C68.0769 18.5305 67.4162 18.2321 66.7555 17.8911C66.1162 17.5288 65.5833 17.0599 65.1571 16.4845C64.7522 15.909 64.5497 15.1844 64.5497 14.3106C64.5497 13.4154 64.7735 12.6695 65.221 12.0727C65.6899 11.476 66.308 11.0391 67.0752 10.762C67.8638 10.4636 68.7056 10.3145 69.6008 10.3145C70.4107 10.3145 71.1673 10.4317 71.8706 10.6661C72.5952 10.9006 73.2452 11.2096 73.8207 11.5932C74.3961 11.9768 74.8863 12.4137 75.2913 12.9039L73.3731 14.95C72.8829 14.3745 72.2968 13.9056 71.6148 13.5433C70.9328 13.181 70.2295 12.9998 69.5049 12.9998C69.0147 12.9998 68.6097 13.1064 68.2901 13.3195C67.9704 13.5327 67.8105 13.8417 67.8105 14.2466C67.8105 14.5876 67.9491 14.8967 68.2261 15.1737C68.5245 15.4295 68.9081 15.6639 69.377 15.877C69.8672 16.0902 70.4107 16.314 71.0074 16.5484C71.8173 16.8681 72.5632 17.2197 73.2452 17.6034C73.9272 17.987 74.4707 18.4559 74.8757 19.01C75.3019 19.5641 75.515 20.2888 75.515 21.1839C75.515 22.5692 75.0355 23.6881 74.0764 24.5406C73.1387 25.3718 71.8599 25.7874 70.2402 25.7874C69.2385 25.7874 68.3114 25.6382 67.4589 25.3399C66.6277 25.0202 65.8924 24.6152 65.253 24.125C64.6349 23.6135 64.1128 23.0807 63.6865 22.5266L65.7006 20.5125Z" fill="#F4F2EB"/>
<path d="M45.9028 17.987C45.9028 16.4738 46.2438 15.1418 46.9258 13.9909C47.6292 12.84 48.5776 11.9449 49.7711 11.3055C50.9646 10.6448 52.3179 10.3145 53.8311 10.3145C55.3443 10.3145 56.687 10.6448 57.8592 11.3055C59.0527 11.9449 60.0011 12.84 60.7045 13.9909C61.4078 15.1418 61.7594 16.4738 61.7594 17.987C61.7594 19.4789 61.4078 20.8109 60.7045 21.9831C60.0011 23.134 59.0527 24.0398 57.8592 24.7005C56.687 25.3399 55.3443 25.6595 53.8311 25.6595C52.3179 25.6595 50.9646 25.3399 49.7711 24.7005C48.5776 24.0398 47.6292 23.134 46.9258 21.9831C46.2438 20.8109 45.9028 19.4789 45.9028 17.987ZM49.4514 17.987C49.4514 18.9034 49.6432 19.7133 50.0268 20.4166C50.4105 21.0986 50.9326 21.6421 51.5933 22.0471C52.254 22.4307 52.9999 22.6225 53.8311 22.6225C54.641 22.6225 55.3763 22.4307 56.037 22.0471C56.719 21.6421 57.2518 21.0986 57.6354 20.4166C58.0191 19.7133 58.2109 18.9034 58.2109 17.987C58.2109 17.0706 58.0191 16.2607 57.6354 15.5574C57.2518 14.854 56.719 14.3106 56.037 13.9269C55.3763 13.5433 54.641 13.3515 53.8311 13.3515C52.9999 13.3515 52.254 13.5433 51.5933 13.9269C50.9326 14.3106 50.4105 14.854 50.0268 15.5574C49.6432 16.2607 49.4514 17.0706 49.4514 17.987Z" fill="#F4F2EB"/>
</svg>
