<svg width="98" height="98" viewBox="0 0 98 98" fill="none" xmlns="http://www.w3.org/2000/svg">
<path d="M47.8196 12.7148C43.0704 13.5673 39.03 15.1026 34.7984 17.392C31.8388 18.9932 28.1666 21.2988 26.0208 23.9484" stroke="white" stroke-width="4.80072" stroke-linecap="round"/>
<path d="M20.2716 31.2026C19.2121 32.8063 17.5414 33.8768 16.665 35.5768C15.9298 37.003 15.3763 38.447 15.0352 40.013" stroke="white" stroke-width="4.80072" stroke-linecap="round"/>
<circle cx="49" cy="49" r="46" fill="white" fill-opacity="0.2" stroke="white" stroke-width="6"/>
<path fill-rule="evenodd" clip-rule="evenodd" d="M52.4832 44.8601C53.7214 44.2668 55.2966 43.3931 56.874 42.196C57.2065 42.8599 57.2433 43.4392 57.0716 43.9069C56.9501 44.2365 56.7212 44.5232 56.4206 44.7513C56.0949 44.9977 55.6879 45.1775 55.2382 45.2744C54.3848 45.4592 53.3882 45.3516 52.4832 44.8601ZM52.6979 50.9407L54.3368 51.8507C50.9904 53.6538 50.0805 57.0018 48.9996 60.2625C47.9191 57.0018 47.0091 53.6535 43.6627 51.8507L45.3016 50.9407C45.6269 50.8224 45.8361 50.5166 45.8196 50.1827C45.6692 47.1287 46.5271 45.778 47.6845 44.9303C48.0993 44.6267 48.5525 44.4743 48.9996 44.4743C49.4467 44.4743 49.8998 44.6267 50.3146 44.9303C51.4716 45.7784 52.3295 47.1287 52.1795 50.1827C52.163 50.5166 52.373 50.8224 52.6979 50.9407ZM49 31C50.8945 31.049 52.7938 31.4024 54.4422 32.0902C55.5837 32.5672 56.6484 33.1969 57.6131 33.9502C58.0486 34.2903 58.4073 34.6189 58.8024 34.9971C59.8678 35.0324 61.425 33.8947 62.148 32.8301C60.9037 36.7509 55.2265 41.3807 51.2962 43.1524C51.2947 43.1518 51.2936 43.151 51.2925 43.1503C50.5871 42.6325 49.7938 42.3736 49.0003 42.3736C48.2069 42.3736 47.4135 42.6325 46.7082 43.1503C46.7071 43.151 46.706 43.1521 46.7045 43.1524C42.7734 41.3807 37.0966 36.7505 35.8523 32.8301C36.5752 33.8947 38.1321 35.0328 39.1976 34.9971C39.5926 34.6192 39.9513 34.2903 40.3868 33.9502C41.3511 33.1969 42.4162 32.5672 43.5578 32.0902C45.2064 31.4024 47.1055 31.049 49 31ZM45.5168 44.8601C44.2788 44.2668 42.7033 43.3931 41.1258 42.196C40.7934 42.8599 40.7567 43.4392 40.9279 43.9069C41.0494 44.2365 41.2784 44.5232 41.5789 44.7513C41.905 44.9977 42.312 45.1775 42.7618 45.2744C43.6151 45.4592 44.612 45.3516 45.5168 44.8601Z" fill="white"/>
<path fill-rule="evenodd" clip-rule="evenodd" d="M58.6018 40.729C59.4702 39.8866 60.2355 38.9543 60.8505 38.1221L61.1631 38.6873C62.169 40.6219 62.6918 42.549 62.6918 44.7174L62.6896 48.1587L62.7083 49.9424C62.7811 54.3217 63.7671 58.7522 66 62.807L61.328 59.1857L58.0225 64.3421L54.5498 61.1995L49 69.8567L43.4502 61.1999L39.9776 64.3425L36.672 59.1861L32 62.8074C34.2329 58.7526 35.2186 54.3217 35.2917 49.9427L35.3104 48.159L35.3082 44.7178C35.3082 42.549 35.8306 40.6223 36.8369 38.6877L37.1491 38.1224C37.7645 38.9543 38.5294 39.8866 39.3978 40.7293L39.1264 41.2708C38.5995 42.3224 38.4252 43.4983 38.8356 44.6169C39.1002 45.3371 39.5829 45.9549 40.2054 46.4266C40.8099 46.8844 41.5254 47.1932 42.2742 47.3553C42.7622 47.4608 43.2591 47.5045 43.7531 47.4897C43.638 48.1176 43.5874 48.7686 43.5845 49.4323L39.1774 51.8791L42.5782 53.7114C42.8499 53.8581 43.1089 54.0255 43.3517 54.2133C46.1554 56.6331 47.8412 63.792 48.9996 67.2887C50.1581 63.792 51.8439 56.6331 54.6476 54.2133C54.8904 54.0259 55.1494 53.8581 55.4211 53.7114L58.8219 51.8791L54.4148 49.4323C54.4115 48.7686 54.3612 48.1176 54.2462 47.4897C54.7402 47.5045 55.2371 47.4608 55.725 47.3553C56.4739 47.1932 57.1893 46.8844 57.7938 46.4266C58.4164 45.9549 58.8991 45.3371 59.1637 44.6169C59.574 43.4987 59.3997 42.3228 58.8728 41.2708L58.6018 40.729Z" fill="white"/>
</svg>
