<svg width="99" height="99" viewBox="0 0 99 99" fill="none" xmlns="http://www.w3.org/2000/svg">
<path d="M48.8196 15.7148C44.0704 16.5673 40.03 18.1026 35.7984 20.392C32.8388 21.9932 29.1666 24.2988 27.0208 26.9484" stroke="white" stroke-width="4.80072" stroke-linecap="round"/>
<path d="M21.2716 34.2026C20.2121 35.8063 18.5414 36.8768 17.665 38.5768C16.9298 40.003 16.3763 41.447 16.0352 43.013" stroke="white" stroke-width="4.80072" stroke-linecap="round"/>
<path fill-rule="evenodd" clip-rule="evenodd" d="M66.4905 30.2669C67.0459 30.0306 67.6537 29.9491 68.2508 30.0309C68.8479 30.1126 69.4124 30.3547 69.8856 30.7319C70.3587 31.1091 70.7232 31.6076 70.9411 32.1755C71.159 32.7435 71.2224 33.36 71.1246 33.9611L66.0275 65.2167C65.5331 68.2317 62.261 69.9606 59.5259 68.4589C57.2381 67.2024 53.8401 65.2667 50.7837 63.2469C49.2555 62.2359 44.5742 58.9983 45.1495 56.6945C45.644 54.7247 53.5097 47.3226 58.0045 42.9218C59.7686 41.1928 58.9641 40.1954 56.8808 41.7858C51.7073 45.7345 43.4011 51.7394 40.6548 53.4297C38.2322 54.9201 36.9691 55.1746 35.4589 54.9201C32.7036 54.4566 30.1484 53.7387 28.0628 52.864C25.2446 51.6826 25.3817 47.7657 28.0606 46.6251L66.4905 30.2669Z" fill="white"/>
<circle cx="49.5" cy="49.5" r="46.5" fill="white" fill-opacity="0.2" stroke="white" stroke-width="6"/>
</svg>
