<svg width="98" height="98" viewBox="0 0 98 98" fill="none" xmlns="http://www.w3.org/2000/svg">
<path d="M56.2627 33.0283L61.3761 32.286L52.0583 46.6772L67.7234 62.142L57.4329 63.6359L47.8441 54.2679L40.1504 66.1447L35.0343 66.8874L45.0011 51.494L30.0002 36.8422L40.552 35.3104L49.2353 43.8848L56.2627 33.0283ZM58.4004 60.3713L61.2336 59.96L39.4332 38.4324L36.393 38.8737L58.4004 60.3713Z" fill="white"/>
<path d="M47.8196 12.7148C43.0704 13.5673 39.03 15.1026 34.7984 17.392C31.8388 18.9932 28.1666 21.2988 26.0208 23.9484" stroke="white" stroke-width="4.80072" stroke-linecap="round"/>
<path d="M20.2716 31.2026C19.2121 32.8063 17.5414 33.8768 16.665 35.5768C15.9298 37.003 15.3763 38.447 15.0352 40.013" stroke="white" stroke-width="4.80072" stroke-linecap="round"/>
<circle cx="49" cy="49" r="46" fill="white" fill-opacity="0.2" stroke="white" stroke-width="6"/>
</svg>
